{
    "asset" : {
        "generator" : "Khronos glTF Blender I/O v1.7.33",
        "version" : "2.0"
    },
    "scene" : 0,
    "scenes" : [
        {
            "name" : "Scene",
            "nodes" : [
                0
            ]
        }
    ],
    "nodes" : [
        {
            "mesh" : 0,
            "name" : "Mball.013"
        }
    ],
    "meshes" : [
        {
            "name" : "Mesh.002",
            "primitives" : [
                {
                    "attributes" : {
                        "POSITION" : 0,
                        "NORMAL" : 1
                    },
                    "indices" : 2
                }
            ]
        }
    ],
    "accessors" : [
        {
            "bufferView" : 0,
            "componentType" : 5126,
            "count" : 26767,
            "max" : [
                3.108548879623413,
                3.941964864730835,
                2.8820526599884033
            ],
            "min" : [
                -2.526413917541504,
                -1.2134265899658203,
                -3.951838731765747
            ],
            "type" : "VEC3"
        },
        {
            "bufferView" : 1,
            "componentType" : 5126,
            "count" : 26767,
            "type" : "VEC3"
        },
        {
            "bufferView" : 2,
            "componentType" : 5123,
            "count" : 59856,
            "type" : "SCALAR"
        }
    ],
    "bufferViews" : [
        {
            "buffer" : 0,
            "byteLength" : 321204,
            "byteOffset" : 0
        },
        {
            "buffer" : 0,
            "byteLength" : 321204,
            "byteOffset" : 321204
        },
        {
            "buffer" : 0,
            "byteLength" : 119712,
            "byteOffset" : 642408
        }
    ],
    "buffers" : [
        {
            "byteLength" : 762120,
            "uri" : "data:application/octet-stream;base64,"
        }
    ]
}
