{
    "asset" : {
        "generator" : "Khronos glTF Blender I/O v1.7.33",
        "version" : "2.0"
    },
    "scene" : 0,
    "scenes" : [
        {
            "name" : "Scene",
            "nodes" : [
                0
            ]
        }
    ],
    "nodes" : [
        {
            "mesh" : 0,
            "name" : "Mball.008"
        }
    ],
    "meshes" : [
        {
            "name" : "Mesh",
            "primitives" : [
                {
                    "attributes" : {
                        "POSITION" : 0,
                        "NORMAL" : 1
                    },
                    "indices" : 2
                }
            ]
        }
    ],
    "accessors" : [
        {
            "bufferView" : 0,
            "componentType" : 5126,
            "count" : 15566,
            "max" : [
                2.68461012840271,
                2.623100757598877,
                3.20766282081604
            ],
            "min" : [
                -2.148682117462158,
                -1.1651556491851807,
                -4.23822021484375
            ],
            "type" : "VEC3"
        },
        {
            "bufferView" : 1,
            "componentType" : 5126,
            "count" : 15566,
            "type" : "VEC3"
        },
        {
            "bufferView" : 2,
            "componentType" : 5123,
            "count" : 40560,
            "type" : "SCALAR"
        }
    ],
    "bufferViews" : [
        {
            "buffer" : 0,
            "byteLength" : 186792,
            "byteOffset" : 0
        },
        {
            "buffer" : 0,
            "byteLength" : 186792,
            "byteOffset" : 186792
        },
        {
            "buffer" : 0,
            "byteLength" : 81120,
            "byteOffset" : 373584
        }
    ],
    "buffers" : [
        {
            "byteLength" : 454704,
            "uri" : "data:application/octet-stream;base64,"
        }
    ]
}
