{
    "asset" : {
        "generator" : "Khronos glTF Blender I/O v1.7.33",
        "version" : "2.0"
    },
    "scene" : 0,
    "scenes" : [
        {
            "name" : "Scene",
            "nodes" : [
                0
            ]
        }
    ],
    "nodes" : [
        {
            "mesh" : 0,
            "name" : "Mball.015",
            "translation" : [
                0,
                0,
                -1.0678598880767822
            ]
        }
    ],
    "meshes" : [
        {
            "name" : "Mesh.003",
            "primitives" : [
                {
                    "attributes" : {
                        "POSITION" : 0,
                        "NORMAL" : 1
                    },
                    "indices" : 2
                }
            ]
        }
    ],
    "accessors" : [
        {
            "bufferView" : 0,
            "componentType" : 5126,
            "count" : 17929,
            "max" : [
                4.603766918182373,
                2.953152656555176,
                3.258965492248535
            ],
            "min" : [
                -2.8967881202697754,
                -1.3892736434936523,
                -1.3466386795043945
            ],
            "type" : "VEC3"
        },
        {
            "bufferView" : 1,
            "componentType" : 5126,
            "count" : 17929,
            "type" : "VEC3"
        },
        {
            "bufferView" : 2,
            "componentType" : 5123,
            "count" : 45732,
            "type" : "SCALAR"
        }
    ],
    "bufferViews" : [
        {
            "buffer" : 0,
            "byteLength" : 215148,
            "byteOffset" : 0
        },
        {
            "buffer" : 0,
            "byteLength" : 215148,
            "byteOffset" : 215148
        },
        {
            "buffer" : 0,
            "byteLength" : 91464,
            "byteOffset" : 430296
        }
    ],
    "buffers" : [
        {
            "byteLength" : 521760,
            "uri" : "data:application/octet-stream;base64,"
        }
    ]
}
