{
    "asset" : {
        "generator" : "Khronos glTF Blender I/O v1.7.33",
        "version" : "2.0"
    },
    "scene" : 0,
    "scenes" : [
        {
            "name" : "Scene",
            "nodes" : [
                0
            ]
        }
    ],
    "nodes" : [
        {
            "mesh" : 0,
            "name" : "Mball.005"
        }
    ],
    "meshes" : [
        {
            "name" : "Mesh.001",
            "primitives" : [
                {
                    "attributes" : {
                        "POSITION" : 0,
                        "NORMAL" : 1
                    },
                    "indices" : 2
                }
            ]
        }
    ],
    "accessors" : [
        {
            "bufferView" : 0,
            "componentType" : 5126,
            "count" : 19465,
            "max" : [
                2.6656975746154785,
                1.413700819015503,
                4.131503105163574
            ],
            "min" : [
                -2.64981746673584,
                -1.413700819015503,
                -2.314972400665283
            ],
            "type" : "VEC3"
        },
        {
            "bufferView" : 1,
            "componentType" : 5126,
            "count" : 19465,
            "type" : "VEC3"
        },
        {
            "bufferView" : 2,
            "componentType" : 5123,
            "count" : 47424,
            "type" : "SCALAR"
        }
    ],
    "bufferViews" : [
        {
            "buffer" : 0,
            "byteLength" : 233580,
            "byteOffset" : 0
        },
        {
            "buffer" : 0,
            "byteLength" : 233580,
            "byteOffset" : 233580
        },
        {
            "buffer" : 0,
            "byteLength" : 94848,
            "byteOffset" : 467160
        }
    ],
    "buffers" : [
        {
            "byteLength" : 562008,
            "uri" : "data:application/octet-stream;base64,"
        }
    ]
}
