{
    "asset" : {
        "generator" : "Khronos glTF Blender I/O v1.7.33",
        "version" : "2.0"
    },
    "scene" : 0,
    "scenes" : [
        {
            "name" : "Scene",
            "nodes" : [
                0
            ]
        }
    ],
    "nodes" : [
        {
            "mesh" : 0,
            "name" : "Mball.011",
            "translation" : [
                -1.0736324787139893,
                0,
                0
            ]
        }
    ],
    "meshes" : [
        {
            "name" : "Mesh.004",
            "primitives" : [
                {
                    "attributes" : {
                        "POSITION" : 0,
                        "NORMAL" : 1
                    },
                    "indices" : 2
                }
            ]
        }
    ],
    "accessors" : [
        {
            "bufferView" : 0,
            "componentType" : 5126,
            "count" : 31185,
            "max" : [
                3.648049831390381,
                2.3877599239349365,
                2.293870210647583
            ],
            "min" : [
                -1.3642234802246094,
                -1.3934286832809448,
                -2.0149261951446533
            ],
            "type" : "VEC3"
        },
        {
            "bufferView" : 1,
            "componentType" : 5126,
            "count" : 31185,
            "type" : "VEC3"
        },
        {
            "bufferView" : 2,
            "componentType" : 5123,
            "count" : 62940,
            "type" : "SCALAR"
        }
    ],
    "bufferViews" : [
        {
            "buffer" : 0,
            "byteLength" : 374220,
            "byteOffset" : 0
        },
        {
            "buffer" : 0,
            "byteLength" : 374220,
            "byteOffset" : 374220
        },
        {
            "buffer" : 0,
            "byteLength" : 125880,
            "byteOffset" : 748440
        }
    ],
    "buffers" : [
        {
            "byteLength" : 874320,
            "uri" : "data:application/octet-stream;base64,"
        }
    ]
}
