{
    "asset" : {
        "generator" : "Khronos glTF Blender I/O v1.7.33",
        "version" : "2.0"
    },
    "scene" : 0,
    "scenes" : [
        {
            "name" : "Scene",
            "nodes" : [
                0
            ]
        }
    ],
    "nodes" : [
        {
            "mesh" : 0,
            "name" : "BorpaBody1.001"
        }
    ],
    "meshes" : [
        {
            "name" : "Mesh.001",
            "primitives" : [
                {
                    "attributes" : {
                        "POSITION" : 0,
                        "NORMAL" : 1
                    },
                    "indices" : 2
                }
            ]
        }
    ],
    "accessors" : [
        {
            "bufferView" : 0,
            "componentType" : 5126,
            "count" : 28040,
            "max" : [
                2.9214138984680176,
                3.601935625076294,
                4.88904333114624
            ],
            "min" : [
                -2.9176137447357178,
                -0.7399049997329712,
                -3.6449201107025146
            ],
            "type" : "VEC3"
        },
        {
            "bufferView" : 1,
            "componentType" : 5126,
            "count" : 28040,
            "type" : "VEC3"
        },
        {
            "bufferView" : 2,
            "componentType" : 5123,
            "count" : 52968,
            "type" : "SCALAR"
        }
    ],
    "bufferViews" : [
        {
            "buffer" : 0,
            "byteLength" : 336480,
            "byteOffset" : 0
        },
        {
            "buffer" : 0,
            "byteLength" : 336480,
            "byteOffset" : 336480
        },
        {
            "buffer" : 0,
            "byteLength" : 105936,
            "byteOffset" : 672960
        }
    ],
    "buffers" : [
        {
            "byteLength" : 778896,
            "uri" : "data:application/octet-stream;base64,"
        }
    ]
}
