{
    "asset" : {
        "generator" : "Khronos glTF Blender I/O v1.7.33",
        "version" : "2.0"
    },
    "scene" : 0,
    "scenes" : [
        {
            "name" : "Scene",
            "nodes" : [
                0
            ]
        }
    ],
    "nodes" : [
        {
            "mesh" : 0,
            "name" : "Mball.013"
        }
    ],
    "meshes" : [
        {
            "name" : "Mesh.005",
            "primitives" : [
                {
                    "attributes" : {
                        "POSITION" : 0,
                        "NORMAL" : 1
                    },
                    "indices" : 2
                }
            ]
        }
    ],
    "accessors" : [
        {
            "bufferView" : 0,
            "componentType" : 5126,
            "count" : 32136,
            "max" : [
                2.49879789352417,
                3.979858875274658,
                3.1175479888916016
            ],
            "min" : [
                -2.585275173187256,
                -1.2960666418075562,
                -2.350229024887085
            ],
            "type" : "VEC3"
        },
        {
            "bufferView" : 1,
            "componentType" : 5126,
            "count" : 32136,
            "type" : "VEC3"
        },
        {
            "bufferView" : 2,
            "componentType" : 5123,
            "count" : 76824,
            "type" : "SCALAR"
        }
    ],
    "bufferViews" : [
        {
            "buffer" : 0,
            "byteLength" : 385632,
            "byteOffset" : 0
        },
        {
            "buffer" : 0,
            "byteLength" : 385632,
            "byteOffset" : 385632
        },
        {
            "buffer" : 0,
            "byteLength" : 153648,
            "byteOffset" : 771264
        }
    ],
    "buffers" : [
        {
            "byteLength" : 924912,
            "uri" : "data:application/octet-stream;base64,"
        }
    ]
}
