{
    "asset" : {
        "generator" : "Khronos glTF Blender I/O v1.7.33",
        "version" : "2.0"
    },
    "scene" : 0,
    "scenes" : [
        {
            "name" : "Scene",
            "nodes" : [
                0
            ]
        }
    ],
    "nodes" : [
        {
            "mesh" : 0,
            "name" : "Mball.017"
        }
    ],
    "meshes" : [
        {
            "name" : "Mesh.004",
            "primitives" : [
                {
                    "attributes" : {
                        "POSITION" : 0,
                        "NORMAL" : 1
                    },
                    "indices" : 2
                }
            ]
        }
    ],
    "accessors" : [
        {
            "bufferView" : 0,
            "componentType" : 5126,
            "count" : 23508,
            "max" : [
                2.5761096477508545,
                1.4723827838897705,
                2.792253017425537
            ],
            "min" : [
                -2.0799202919006348,
                -1.4004864692687988,
                -2.854421377182007
            ],
            "type" : "VEC3"
        },
        {
            "bufferView" : 1,
            "componentType" : 5126,
            "count" : 23508,
            "type" : "VEC3"
        },
        {
            "bufferView" : 2,
            "componentType" : 5123,
            "count" : 61176,
            "type" : "SCALAR"
        }
    ],
    "bufferViews" : [
        {
            "buffer" : 0,
            "byteLength" : 282096,
            "byteOffset" : 0
        },
        {
            "buffer" : 0,
            "byteLength" : 282096,
            "byteOffset" : 282096
        },
        {
            "buffer" : 0,
            "byteLength" : 122352,
            "byteOffset" : 564192
        }
    ],
    "buffers" : [
        {
            "byteLength" : 686544,
            "uri" : "data:application/octet-stream;base64,"
        }
    ]
}
